<svg xmlns="http://www.w3.org/2000/svg" width="210.64999999999998" height="35" viewBox="0 0 210.64999999999998 35"><rect class="svg__rect" x="0" y="0" width="92.19" height="35" fill="#000000"/><rect class="svg__rect" x="90.19" y="0" width="120.46" height="35" fill="#005EB8"/><path class="svg__text" d="M15.69 22L14.22 22L14.22 13.47L16.14 13.47L18.60 20.01L21.06 13.47L22.97 13.47L22.97 22L21.49 22L21.49 19.19L21.64 15.43L19.12 22L18.06 22L15.55 15.43L15.69 19.19L15.69 22ZM28.49 22L26.95 22L30.17 13.47L31.50 13.47L34.73 22L33.18 22L32.49 20.01L29.18 20.01L28.49 22ZM30.83 15.28L29.60 18.82L32.07 18.82L30.83 15.28ZM41.14 22L38.69 22L38.69 13.47L41.21 13.47Q42.34 13.47 43.21 13.97Q44.09 14.48 44.57 15.40Q45.05 16.33 45.05 17.52L45.05 17.52L45.05 17.95Q45.05 19.16 44.57 20.08Q44.08 21.00 43.19 21.50Q42.30 22 41.14 22L41.14 22ZM40.17 14.66L40.17 20.82L41.14 20.82Q42.30 20.82 42.93 20.09Q43.55 19.36 43.56 17.99L43.56 17.99L43.56 17.52Q43.56 16.13 42.96 15.40Q42.35 14.66 41.21 14.66L41.21 14.66L40.17 14.66ZM55.09 22L49.51 22L49.51 13.47L55.05 13.47L55.05 14.66L51.00 14.66L51.00 17.02L54.50 17.02L54.50 18.19L51.00 18.19L51.00 20.82L55.09 20.82L55.09 22ZM66.83 22L65.35 22L65.35 13.47L66.83 13.47L66.83 22ZM73.12 22L71.64 22L71.64 13.47L73.12 13.47L76.94 19.54L76.94 13.47L78.41 13.47L78.41 22L76.92 22L73.12 15.95L73.12 22Z" fill="#FFFFFF"/><path class="svg__text" d="M103.79 21.24L103.79 21.24L104.57 19.49Q105.13 19.86 105.88 20.09Q106.62 20.32 107.34 20.32L107.34 20.32Q108.71 20.32 108.71 19.64L108.71 19.64Q108.71 19.28 108.32 19.11Q107.93 18.93 107.07 18.74L107.07 18.74Q106.12 18.53 105.48 18.30Q104.85 18.06 104.39 17.55Q103.94 17.03 103.94 16.16L103.94 16.16Q103.94 15.39 104.36 14.77Q104.78 14.15 105.61 13.79Q106.45 13.43 107.65 13.43L107.65 13.43Q108.48 13.43 109.29 13.62Q110.09 13.80 110.71 14.17L110.71 14.17L109.97 15.93Q108.77 15.28 107.64 15.28L107.64 15.28Q106.93 15.28 106.61 15.49Q106.29 15.70 106.29 16.04L106.29 16.04Q106.29 16.37 106.67 16.54Q107.06 16.71 107.91 16.89L107.91 16.89Q108.87 17.10 109.50 17.33Q110.13 17.56 110.59 18.07Q111.05 18.58 111.05 19.46L111.05 19.46Q111.05 20.21 110.63 20.83Q110.21 21.44 109.37 21.80Q108.53 22.17 107.33 22.17L107.33 22.17Q106.31 22.17 105.35 21.92Q104.39 21.67 103.79 21.24ZM115.20 17.80L115.20 17.80Q115.20 16.54 115.80 15.54Q116.40 14.55 117.45 13.99Q118.50 13.43 119.82 13.43L119.82 13.43Q120.97 13.43 121.89 13.84Q122.82 14.25 123.43 15.02L123.43 15.02L121.92 16.39Q121.11 15.40 119.94 15.40L119.94 15.40Q119.25 15.40 118.72 15.70Q118.19 16 117.89 16.54Q117.60 17.09 117.60 17.80L117.60 17.80Q117.60 18.51 117.89 19.05Q118.19 19.60 118.72 19.90Q119.25 20.20 119.94 20.20L119.94 20.20Q121.11 20.20 121.92 19.22L121.92 19.22L123.43 20.58Q122.82 21.35 121.90 21.76Q120.97 22.17 119.82 22.17L119.82 22.17Q118.50 22.17 117.45 21.61Q116.40 21.05 115.80 20.05Q115.20 19.06 115.20 17.80ZM127.54 17.80L127.54 17.80Q127.54 16.55 128.14 15.55Q128.75 14.56 129.81 14.00Q130.87 13.43 132.20 13.43L132.20 13.43Q133.53 13.43 134.60 14.00Q135.66 14.56 136.27 15.55Q136.87 16.55 136.87 17.80L136.87 17.80Q136.87 19.05 136.27 20.04Q135.66 21.04 134.60 21.60Q133.54 22.17 132.20 22.17L132.20 22.17Q130.87 22.17 129.81 21.60Q128.75 21.04 128.14 20.04Q127.54 19.05 127.54 17.80ZM129.94 17.80L129.94 17.80Q129.94 18.51 130.24 19.05Q130.54 19.60 131.06 19.90Q131.57 20.20 132.20 20.20L132.20 20.20Q132.84 20.20 133.36 19.90Q133.87 19.60 134.17 19.05Q134.47 18.51 134.47 17.80L134.47 17.80Q134.47 17.09 134.17 16.54Q133.87 16 133.36 15.70Q132.84 15.40 132.20 15.40L132.20 15.40Q131.57 15.40 131.05 15.70Q130.54 16 130.24 16.54Q129.94 17.09 129.94 17.80ZM143.40 15.48L140.81 15.48L140.81 13.60L148.33 13.60L148.33 15.48L145.77 15.48L145.77 22L143.40 22L143.40 15.48ZM159.09 22L152.71 22L152.71 13.60L155.08 13.60L155.08 20.11L159.09 20.11L159.09 22ZM164.93 22L162.50 22L166.21 13.60L168.56 13.60L172.27 22L169.80 22L169.14 20.37L165.59 20.37L164.93 22ZM167.37 15.93L166.28 18.61L168.44 18.61L167.37 15.93ZM178.76 22L176.42 22L176.42 13.60L178.38 13.60L182.09 18.07L182.09 13.60L184.42 13.60L184.42 22L182.47 22L178.76 17.52L178.76 22ZM193.55 22L189.58 22L189.58 13.60L193.55 13.60Q194.93 13.60 196.00 14.12Q197.07 14.63 197.66 15.58Q198.25 16.53 198.25 17.80L198.25 17.80Q198.25 19.07 197.66 20.02Q197.07 20.97 196.00 21.48Q194.93 22 193.55 22L193.55 22ZM191.96 15.50L191.96 20.10L193.46 20.10Q194.54 20.10 195.19 19.49Q195.84 18.88 195.84 17.80L195.84 17.80Q195.84 16.72 195.19 16.11Q194.54 15.50 193.46 15.50L193.46 15.50L191.96 15.50Z" fill="#FFFFFF" x="103.19"/></svg>