<?xml version="1.0" encoding="UTF-8" standalone="no"?>
<svg
   width="210.64999"
   height="28"
   viewBox="0 0 210.65 28"
   version="1.1"
   id="svg10"
   sodipodi:docname="made-in-scotland.svg"
   inkscape:version="1.2 (dc2aedaf03, 2022-05-15)"
   xmlns:inkscape="http://www.inkscape.org/namespaces/inkscape"
   xmlns:sodipodi="http://sodipodi.sourceforge.net/DTD/sodipodi-0.dtd"
   xmlns="http://www.w3.org/2000/svg"
   xmlns:svg="http://www.w3.org/2000/svg">
  <defs
     id="defs14" />
  <sodipodi:namedview
     id="namedview12"
     pagecolor="#ffffff"
     bordercolor="#000000"
     borderopacity="0.25"
     inkscape:showpageshadow="2"
     inkscape:pageopacity="0.0"
     inkscape:pagecheckerboard="0"
     inkscape:deskcolor="#d1d1d1"
     showgrid="false"
     inkscape:zoom="5.3334915"
     inkscape:cx="35.06146"
     inkscape:cy="-6.7497998"
     inkscape:window-width="1916"
     inkscape:window-height="2119"
     inkscape:window-x="4480"
     inkscape:window-y="37"
     inkscape:window-maximized="1"
     inkscape:current-layer="svg10" />
  <rect
     class="svg__rect"
     x="0"
     y="0"
     width="92.190002"
     height="28"
     fill="#000000"
     id="rect2"
     style="stroke-width:0.894427;fill:#373737;fill-opacity:1" />
  <rect
     class="svg__rect"
     x="90.190002"
     y="0"
     width="120.46"
     height="28"
     fill="#005eb8"
     id="rect4"
     style="stroke-width:0.894427" />
  <path
     class="svg__text"
     d="m 15.69,18.265 h -1.47 v -8.53 h 1.92 l 2.46,6.54 2.46,-6.54 h 1.91 v 8.53 h -1.48 v -2.81 l 0.15,-3.76 -2.52,6.57 h -1.06 l -2.51,-6.57 0.14,3.76 z m 12.8,0 h -1.54 l 3.22,-8.53 h 1.33 l 3.23,8.53 h -1.55 l -0.69,-1.99 h -3.31 z m 2.34,-6.72 -1.23,3.54 h 2.47 z m 10.31,6.72 h -2.45 v -8.53 h 2.52 q 1.13,0 2,0.5 0.88,0.51 1.36,1.43 0.48,0.93 0.48,2.12 v 0 0.43 q 0,1.21 -0.48,2.13 -0.49,0.92 -1.38,1.42 -0.89,0.5 -2.05,0.5 z m -0.97,-7.34 v 6.16 h 0.97 q 1.16,0 1.79,-0.73 0.62,-0.73 0.63,-2.1 v 0 -0.47 q 0,-1.39 -0.6,-2.12 -0.61,-0.74 -1.75,-0.74 v 0 z m 14.92,7.34 h -5.58 v -8.53 h 5.54 v 1.19 H 51 v 2.36 h 3.5 v 1.17 H 51 v 2.63 h 4.09 z m 11.74,0 h -1.48 v -8.53 h 1.48 z m 6.29,0 h -1.48 v -8.53 h 1.48 l 3.82,6.07 v -6.07 h 1.47 v 8.53 h -1.49 l -3.8,-6.05 z"
     fill="#ffffff"
     id="path6" />
  <path
     class="svg__text"
     d="m 103.79,17.44 v 0 l 0.78,-1.75 q 0.56,0.37 1.31,0.6 0.74,0.23 1.46,0.23 v 0 q 1.37,0 1.37,-0.68 v 0 q 0,-0.36 -0.39,-0.53 -0.39,-0.18 -1.25,-0.37 v 0 q -0.95,-0.21 -1.59,-0.44 -0.63,-0.24 -1.09,-0.75 -0.45,-0.52 -0.45,-1.39 v 0 q 0,-0.77 0.42,-1.39 0.42,-0.62 1.25,-0.98 0.84,-0.36 2.04,-0.36 v 0 q 0.83,0 1.64,0.19 0.8,0.18 1.42,0.55 v 0 l -0.74,1.76 q -1.2,-0.65 -2.33,-0.65 v 0 q -0.71,0 -1.03,0.21 -0.32,0.21 -0.32,0.55 v 0 q 0,0.33 0.38,0.5 0.39,0.17 1.24,0.35 v 0 q 0.96,0.21 1.59,0.44 0.63,0.23 1.09,0.74 0.46,0.51 0.46,1.39 v 0 q 0,0.75 -0.42,1.37 -0.42,0.61 -1.26,0.97 -0.84,0.37 -2.04,0.37 v 0 q -1.02,0 -1.98,-0.25 -0.96,-0.25 -1.56,-0.68 z M 115.2,14 v 0 q 0,-1.26 0.6,-2.26 0.6,-0.99 1.65,-1.55 1.05,-0.56 2.37,-0.56 v 0 q 1.15,0 2.07,0.41 0.93,0.41 1.54,1.18 v 0 l -1.51,1.37 q -0.81,-0.99 -1.98,-0.99 v 0 q -0.69,0 -1.22,0.3 -0.53,0.3 -0.83,0.84 -0.29,0.55 -0.29,1.26 v 0 q 0,0.71 0.29,1.25 0.3,0.55 0.83,0.85 0.53,0.3 1.22,0.3 v 0 q 1.17,0 1.98,-0.98 v 0 l 1.51,1.36 q -0.61,0.77 -1.53,1.18 -0.93,0.41 -2.08,0.41 v 0 q -1.32,0 -2.37,-0.56 -1.05,-0.56 -1.65,-1.56 -0.6,-0.99 -0.6,-2.25 z m 12.34,0 v 0 q 0,-1.25 0.6,-2.25 0.61,-0.99 1.67,-1.55 1.06,-0.57 2.39,-0.57 v 0 q 1.33,0 2.4,0.57 1.06,0.56 1.67,1.55 0.6,1 0.6,2.25 v 0 q 0,1.25 -0.6,2.24 -0.61,1 -1.67,1.56 -1.06,0.57 -2.4,0.57 v 0 q -1.33,0 -2.39,-0.57 -1.06,-0.56 -1.67,-1.56 -0.6,-0.99 -0.6,-2.24 z m 2.4,0 v 0 q 0,0.71 0.3,1.25 0.3,0.55 0.82,0.85 0.51,0.3 1.14,0.3 v 0 q 0.64,0 1.16,-0.3 0.51,-0.3 0.81,-0.85 0.3,-0.54 0.3,-1.25 v 0 q 0,-0.71 -0.3,-1.26 -0.3,-0.54 -0.81,-0.84 -0.52,-0.3 -1.16,-0.3 v 0 q -0.63,0 -1.15,0.3 -0.51,0.3 -0.81,0.84 -0.3,0.55 -0.3,1.26 z m 13.46,-2.32 h -2.59 V 9.8 h 7.52 v 1.88 h -2.56 v 6.52 h -2.37 z m 15.69,6.52 h -6.38 V 9.8 h 2.37 v 6.51 h 4.01 z m 5.84,0 h -2.43 l 3.71,-8.4 h 2.35 l 3.71,8.4 h -2.47 l -0.66,-1.63 h -3.55 z m 2.44,-6.07 -1.09,2.68 h 2.16 z m 11.39,6.07 h -2.34 V 9.8 h 1.96 l 3.71,4.47 V 9.8 h 2.33 v 8.4 h -1.95 l -3.71,-4.48 z m 14.79,0 h -3.97 V 9.8 h 3.97 q 1.38,0 2.45,0.52 1.07,0.51 1.66,1.46 0.59,0.95 0.59,2.22 v 0 q 0,1.27 -0.59,2.22 -0.59,0.95 -1.66,1.46 -1.07,0.52 -2.45,0.52 z m -1.59,-6.5 v 4.6 h 1.5 q 1.08,0 1.73,-0.61 0.65,-0.61 0.65,-1.69 v 0 q 0,-1.08 -0.65,-1.69 -0.65,-0.61 -1.73,-0.61 v 0 z"
     fill="#ffffff"
     x="103.19"
     id="path8" />
</svg>
